<svg width="339" height="83" viewBox="0 0 339 83" fill="none" xmlns="http://www.w3.org/2000/svg">
<path d="M76.1429 0H5.83884C2.61741 0 0 2.65402 0 5.91205V76.088C0 79.346 2.61741 82 5.83884 82H76.1429C79.3643 82 82 79.346 82 76.088V5.91205C82 2.65402 79.3643 0 76.1429 0ZM24.783 70.2857H12.6295V31.1527H24.8013V70.2857H24.783ZM18.7062 25.808C14.8076 25.808 11.6594 22.6415 11.6594 18.7612C11.6594 14.8808 14.8076 11.7143 18.7062 11.7143C22.5866 11.7143 25.7531 14.8808 25.7531 18.7612C25.7531 22.6598 22.6049 25.808 18.7062 25.808ZM70.3406 70.2857H58.1871V51.25C58.1871 46.7107 58.0955 40.8719 51.8723 40.8719C45.5393 40.8719 44.5692 45.8138 44.5692 50.9205V70.2857H32.4156V31.1527H44.075V36.4973H44.2397C45.8688 33.4223 49.8406 30.1826 55.7527 30.1826C68.0527 30.1826 70.3406 38.2911 70.3406 48.8339V70.2857Z" fill="white"/>
<path d="M201.107 0H135.893C130.983 0 127 3.98326 127 8.89286V74.1071C127 79.0167 130.983 83 135.893 83H201.107C206.017 83 210 79.0167 210 74.1071V8.89286C210 3.98326 206.017 0 201.107 0ZM178.375 71.0873C176.819 71.3652 176.244 70.4018 176.244 69.6051C176.244 68.6047 176.281 63.4913 176.281 59.3598C176.281 56.4696 175.318 54.6355 174.188 53.6721C181.043 52.9125 188.268 51.9676 188.268 40.129C188.268 36.7571 187.064 35.0712 185.1 32.9036C185.415 32.1069 186.471 28.8277 184.785 24.5665C182.21 23.7699 176.318 27.8828 176.318 27.8828C173.873 27.1973 171.223 26.8453 168.611 26.8453C165.999 26.8453 163.35 27.1973 160.904 27.8828C160.904 27.8828 155.012 23.7699 152.437 24.5665C150.751 28.8092 151.789 32.0884 152.122 32.9036C150.158 35.0712 149.232 36.7571 149.232 40.129C149.232 51.9121 156.143 52.9125 162.998 53.6721C162.108 54.4688 161.312 55.8397 161.034 57.8036C159.274 58.6002 154.772 59.9712 152.085 55.2283C150.399 52.3011 147.361 52.0603 147.361 52.0603C144.36 52.0232 147.157 53.95 147.157 53.95C149.158 54.8763 150.566 58.4335 150.566 58.4335C152.363 63.9359 160.96 62.0833 160.96 62.0833C160.96 64.6585 160.997 68.8455 160.997 69.6051C160.997 70.4018 160.441 71.3652 158.866 71.0873C146.638 66.9929 138.079 55.358 138.079 41.7594C138.079 24.7518 151.085 11.8386 168.092 11.8386C185.1 11.8386 198.884 24.7518 198.884 41.7594C198.902 55.358 190.602 67.0114 178.375 71.0873ZM160.2 59.7674C159.848 59.8415 159.515 59.6933 159.477 59.4525C159.44 59.1745 159.681 58.9337 160.033 58.8596C160.385 58.8225 160.719 58.9708 160.756 59.2116C160.811 59.4525 160.571 59.6933 160.2 59.7674ZM158.44 59.6007C158.44 59.8415 158.162 60.0453 157.792 60.0453C157.384 60.0824 157.106 59.8786 157.106 59.6007C157.106 59.3598 157.384 59.156 157.754 59.156C158.106 59.119 158.44 59.3228 158.44 59.6007ZM155.902 59.3969C155.828 59.6377 155.457 59.7489 155.142 59.6377C154.79 59.5636 154.549 59.2857 154.623 59.0449C154.698 58.804 155.068 58.6929 155.383 58.767C155.754 58.8781 155.994 59.156 155.902 59.3969ZM153.623 58.3964C153.456 58.6002 153.104 58.5632 152.826 58.2853C152.548 58.0444 152.474 57.6924 152.66 57.5257C152.826 57.3219 153.178 57.3589 153.456 57.6368C153.697 57.8777 153.79 58.2482 153.623 58.3964ZM151.937 56.7105C151.77 56.8217 151.455 56.7105 151.252 56.4326C151.048 56.1547 151.048 55.8397 151.252 55.71C151.455 55.5433 151.77 55.673 151.937 55.9509C152.141 56.2288 152.141 56.5623 151.937 56.7105ZM150.733 54.9134C150.566 55.0801 150.288 54.9875 150.084 54.8022C149.881 54.5614 149.844 54.2835 150.01 54.1538C150.177 53.987 150.455 54.0797 150.659 54.265C150.862 54.5058 150.9 54.7837 150.733 54.9134ZM149.492 53.5424C149.417 53.7091 149.177 53.7462 148.973 53.6165C148.732 53.5054 148.621 53.3016 148.695 53.1348C148.769 53.0237 148.973 52.9681 149.214 53.0607C149.454 53.1904 149.566 53.3942 149.492 53.5424Z" fill="white"/>
<path d="M330 0H264C259.031 0 255 3.98326 255 8.89286V74.1071C255 79.0167 259.031 83 264 83H330C334.969 83 339 79.0167 339 74.1071V8.89286C339 3.98326 334.969 0 330 0ZM320.831 29.4205C320.869 29.9393 320.869 30.4766 320.869 30.9953C320.869 47.058 308.494 65.5663 285.881 65.5663C278.906 65.5663 272.438 63.5654 267 60.1194C267.994 60.2306 268.95 60.2676 269.963 60.2676C275.719 60.2676 281.006 58.3408 285.225 55.0801C279.825 54.969 275.288 51.4674 273.731 46.6504C275.625 46.9283 277.331 46.9283 279.281 46.4281C273.656 45.298 269.438 40.4069 269.438 34.4969V34.3487C271.069 35.2565 272.981 35.8123 274.987 35.8864C273.301 34.7778 271.918 33.2739 270.963 31.5088C270.007 29.7437 269.509 27.7724 269.513 25.7708C269.512 23.5105 270.113 21.4355 271.181 19.6384C277.238 27.0121 286.331 31.829 296.531 32.3478C294.787 24.1033 301.031 17.4152 308.531 17.4152C312.075 17.4152 315.262 18.8788 317.512 21.2502C320.287 20.7315 322.95 19.7125 325.312 18.323C324.394 21.1391 322.463 23.5105 319.913 25.0112C322.388 24.7518 324.787 24.0663 327 23.1214C325.331 25.5484 323.231 27.6975 320.831 29.4205Z" fill="white"/>
</svg>
