<svg width="34" height="33" viewBox="0 0 34 33" fill="none" xmlns="http://www.w3.org/2000/svg">
<path d="M29.7433 0H4.23892C2.31885 0 0.761047 1.53925 0.761047 3.43647V28.6373C0.761047 30.5345 2.31885 32.0737 4.23892 32.0737H29.7433C31.6634 32.0737 33.2212 30.5345 33.2212 28.6373V3.43647C33.2212 1.53925 31.6634 0 29.7433 0ZM26.2003 11.369C26.2148 11.5695 26.2148 11.7771 26.2148 11.9775C26.2148 18.1847 21.4327 25.3368 12.6945 25.3368C9.99916 25.3368 7.49943 24.5636 5.39822 23.232C5.78223 23.2749 6.15176 23.2893 6.54302 23.2893C8.76741 23.2893 10.8107 22.5447 12.4409 21.2847C10.3542 21.2417 8.60076 19.8886 7.99938 18.0272C8.73118 18.1346 9.39053 18.1346 10.1441 17.9413C7.9704 17.5045 6.34014 15.6145 6.34014 13.3306V13.2734C6.97051 13.6242 7.70955 13.839 8.48483 13.8676C7.83304 13.4392 7.29872 12.858 6.92955 12.176C6.56038 11.4939 6.36784 10.7321 6.36912 9.95861C6.36912 9.08518 6.60098 8.28333 7.01398 7.58888C9.3543 10.4383 12.8684 12.2997 16.81 12.5002C16.1362 9.31427 18.5489 6.72976 21.4472 6.72976C22.8166 6.72976 24.0483 7.29534 24.9178 8.21174C25.9901 8.01128 27.019 7.61751 27.932 7.08057C27.5769 8.16878 26.8306 9.08517 25.8452 9.66508C26.8016 9.56485 27.7291 9.29995 28.5841 8.93483C27.9392 9.8727 27.1277 10.7032 26.2003 11.369Z" fill="white"/>
</svg>
